HIERARCHY
ROOT Hips
{
	OFFSET 46.155300 -33.944714 84.000290
	CHANNELS 6 Xposition Yposition Zposition Xrotation Yrotation Zrotation
	JOINT spine
	{
		OFFSET 0.000000 -0.359108 6.244789
		CHANNELS 3 Xrotation Yrotation Zrotation
		JOINT spine1
		{
			OFFSET 0.000000 0.000000 9.069412
			CHANNELS 3 Xrotation Yrotation Zrotation
			JOINT spine2
			{
				OFFSET 0.000000 -0.000004 8.690140
				CHANNELS 3 Xrotation Yrotation Zrotation
				JOINT Neck
				{
					OFFSET 0.000000 -1.063725 22.311211
					CHANNELS 3 Xrotation Yrotation Zrotation
					JOINT Head
					{
						OFFSET 0.000000 0.000000 6.740814
						CHANNELS 3 Xrotation Yrotation Zrotation
						End Site
						{
							OFFSET 0.000000 5.380968 16.316498
						}
					}
				}
				JOINT RightShoulder
				{
					OFFSET -3.659161 0.509514 9.384682
					CHANNELS 3 Xrotation Yrotation Zrotation
					JOINT RightArm
					{
						OFFSET 0.000000 -0.000004 12.308914
						CHANNELS 3 Xrotation Yrotation Zrotation
						JOINT RightArmRoll
						{
							OFFSET 0.000000 0.000000 6.213745
							CHANNELS 3 Xrotation Yrotation Zrotation
							JOINT RightForeArm
							{
								OFFSET 0.000000 -0.000004 18.098495
								CHANNELS 3 Xrotation Yrotation Zrotation
								JOINT RightForeArmRoll
								{
									OFFSET 0.000000 0.000000 6.972794
									CHANNELS 3 Xrotation Yrotation Zrotation
									JOINT RightHand
									{
										OFFSET 0.000000 0.000000 13.992905
										CHANNELS 3 Xrotation Yrotation Zrotation
										End Site
										{
											OFFSET 0.000000 0.000000 0.100006
										}
									}
								}
							}
						}
					}
				}
				JOINT LeftShoulder
				{
					OFFSET 3.659161 0.509514 9.384682
					CHANNELS 3 Xrotation Yrotation Zrotation
					JOINT LeftArm
					{
						OFFSET 0.000000 -0.000004 12.308914
						CHANNELS 3 Xrotation Yrotation Zrotation
						JOINT LeftArmRoll
						{
							OFFSET 0.000000 0.000000 6.213745
							CHANNELS 3 Xrotation Yrotation Zrotation
							JOINT LeftForeArm
							{
								OFFSET 0.000000 -0.000004 18.098495
								CHANNELS 3 Xrotation Yrotation Zrotation
								JOINT LeftForeArmRoll
								{
									OFFSET 0.000000 0.000000 6.972794
									CHANNELS 3 Xrotation Yrotation Zrotation
									JOINT LeftHand
									{
										OFFSET 0.000000 0.000000 13.992905
										CHANNELS 3 Xrotation Yrotation Zrotation
										End Site
										{
											OFFSET 0.000000 0.000000 0.100006
										}
									}
								}
							}
						}
					}
				}
			}
		}
	}
	JOINT RightUpLeg
	{
		OFFSET -5.535149 0.851456 -1.014999
		CHANNELS 3 Xrotation Yrotation Zrotation
		JOINT RightUpLegRoll
		{
			OFFSET 0.000000 0.000000 16.407501
			CHANNELS 3 Xrotation Yrotation Zrotation
			JOINT RightLeg
			{
				OFFSET 0.000000 0.000004 -20.318100
				CHANNELS 3 Xrotation Yrotation Zrotation
				JOINT RightLegRoll
				{
					OFFSET 0.000000 -0.000004 20.384598
					CHANNELS 3 Xrotation Yrotation Zrotation
					JOINT RightFoot
					{
						OFFSET 0.000000 -0.000004 16.966805
						CHANNELS 3 Xrotation Yrotation Zrotation
						JOINT RightToeBase
						{
							OFFSET 0.000000 -0.000004 14.183403
							CHANNELS 3 Xrotation Yrotation Zrotation
							End Site
							{
								OFFSET 0.006012 0.791744 6.868896
							}
						}
					}
				}
			}
		}
	}
	JOINT LeftUpLeg
	{
		OFFSET 5.535149 0.851456 -1.014999
		CHANNELS 3 Xrotation Yrotation Zrotation
		JOINT LeftUpLegRoll
		{
			OFFSET 0.000000 0.000000 16.407600
			CHANNELS 3 Xrotation Yrotation Zrotation
			JOINT LeftLeg
			{
				OFFSET 0.000000 -0.000004 20.318100
				CHANNELS 3 Xrotation Yrotation Zrotation
				JOINT LeftLegRoll
				{
					OFFSET 0.000000 -0.000004 20.573112
					CHANNELS 3 Xrotation Yrotation Zrotation
					JOINT LeftFoot
					{
						OFFSET 0.000000 -0.000004 16.778305
						CHANNELS 3 Xrotation Yrotation Zrotation
						JOINT LeftToeBase
						{
							OFFSET 0.000000 0.000000 14.183395
							CHANNELS 3 Xrotation Yrotation Zrotation
							End Site
							{
								OFFSET -0.026943 0.791740 6.868896
							}
						}
					}
				}
			}
		}
	}
}
MOTION
Frames: 12
Frame Time: 0.041667
47.371201 -13.942913 65.145996 35.657901 2.289286 -5.775913 0.191840 -0.075679 0.058835 4.386569 -0.150565 0.121126 6.031615 -0.149062 0.123012 -18.789155 13.200028 3.430144 11.754347 -7.089670 -0.349052 -9.599552 -43.037988 -10.218703 -49.099501 -154.815964 -83.124905 0.000000 0.000001 -0.000004 37.191797 -25.814978 8.671112 -0.000006 0.000009 -3.000008 -5.000240 -7.998683 0.000191 -11.384518 67.685091 13.819010 101.432865 34.764792 -78.088836 0.000000 -0.000000 -0.000006 30.561586 26.494237 -7.708015 -0.000006 -0.000005 3.000002 -5.000083 7.998715 -0.000126 -92.174680 169.406805 0.106127 180.000005 -0.000005 -0.650984 106.796483 -0.911692 -1.366396 -0.000005 -0.000002 1.513321 81.135421 6.893915 0.969115 25.722236 -7.355619 0.034448 -94.427119 178.351252 7.677533 0.000013 -0.000005 -0.765238 -82.444509 -3.729183 -1.963476 -0.000004 0.000001 -2.667040 81.759120 -6.291517 -3.137892 27.705793 7.236344 -3.217511 
47.366299 -14.020914 65.210190 35.524459 2.296675 -5.748397 0.194431 -0.074130 0.059412 4.391733 -0.147476 0.122231 6.036784 -0.145963 0.124077 -18.811642 13.129384 3.404887 11.768573 -7.055275 -0.355518 -9.579208 -43.125931 -10.198644 -49.110952 -154.825936 -82.940572 0.000001 0.000001 0.000001 36.906651 -25.857570 8.622234 -0.000007 0.000008 -3.000012 -5.000240 -7.998683 0.000189 -11.374300 67.736427 13.809618 101.534724 34.743465 -78.435140 -0.000000 0.000000 -0.000002 30.232446 26.469293 -7.616172 -0.000011 -0.000007 2.999999 -5.000082 7.998718 -0.000123 -91.914047 169.414100 0.089040 179.999991 -0.000005 -0.652992 106.871355 -0.902833 -1.361104 -0.000007 -0.000002 1.515070 81.181013 6.894790 0.959621 25.727093 -7.355620 0.035301 -94.169799 178.343875 7.647000 0.000012 -0.000005 -0.767901 -82.361754 -3.728457 -1.952221 -0.000004 0.000000 -2.666430 81.781448 -6.290511 -3.141087 27.714317 7.235498 -3.229992 
47.364201 -14.094803 65.267189 35.386401 2.304282 -5.719469 0.198142 -0.072428 0.059932 4.399177 -0.144077 0.123170 6.044221 -0.142556 0.124973 -18.837534 13.053265 3.378239 11.786289 -7.015203 -0.362612 -9.562358 -43.215071 -10.183244 -49.122188 -154.839050 -82.755508 0.000000 0.000001 -0.000003 36.621999 -25.897922 8.572474 -0.000005 0.000008 -3.000013 -5.000240 -7.998684 0.000190 -11.366890 67.780270 13.803063 101.644546 34.720963 -78.787407 0.000000 0.000000 -0.000002 29.904908 26.439056 -7.523076 -0.000010 -0.000005 2.999999 -5.000081 7.998713 -0.000122 -91.648441 169.422938 0.071096 179.999991 -0.000004 -0.654987 106.946849 -0.893598 -1.356858 -0.000008 -0.000002 1.516830 81.225518 6.895639 0.950388 25.732746 -7.355627 0.036253 -93.906727 178.337892 7.615785 0.000012 -0.000005 -0.770650 -82.276841 -3.728863 -1.941116 -0.000004 0.000000 -2.665980 81.804561 -6.289677 -3.144152 27.722049 7.234734 -3.241415 
47.357700 -14.157122 65.334000 35.244449 2.312059 -5.689251 0.202797 -0.070609 0.060400 4.408481 -0.140434 0.123967 6.053529 -0.138907 0.125723 -18.865843 12.972414 3.350178 11.806814 -6.970401 -0.370328 -9.548313 -43.304991 -10.171608 -49.133581 -154.853871 -82.570621 0.000001 0.000001 -0.000002 36.337429 -25.936144 8.521849 -0.000006 0.000006 -3.000012 -5.000238 -7.998683 0.000192 -11.361480 67.817679 13.798500 101.761622 34.697450 -79.145493 -0.000000 0.000000 -0.000002 29.579329 26.403829 -7.429054 -0.000010 -0.000007 3.000001 -5.000078 7.998718 -0.000124 -91.378669 169.432937 0.053396 180.000005 -0.000004 -0.657992 107.022944 -0.883992 -1.351693 -0.000006 -0.000002 1.518590 81.268999 6.896506 0.941420 25.739006 -7.355623 0.037276 -93.638581 178.333261 7.583944 0.000014 -0.000005 -0.773469 -82.190091 -3.730171 -1.930288 -0.000003 0.000001 -2.665640 81.828385 -6.288913 -3.147178 27.729178 7.234040 -3.251928 
47.350700 -14.228220 65.402191 35.099297 2.319987 -5.657915 0.208187 -0.068706 0.060827 4.419240 -0.136621 0.124646 6.064303 -0.135087 0.126348 -18.896145 12.887831 3.320925 11.829357 -6.921814 -0.378679 -9.536434 -43.395518 -10.162866 -49.145069 -154.870346 -82.385626 0.000000 0.000001 -0.000002 36.052231 -25.972175 8.470116 -0.000009 0.000006 -3.000014 -5.000244 -7.998681 0.000189 -11.357209 67.849720 13.794993 101.884019 34.673643 -79.507384 0.000000 -0.000000 0.000001 29.255770 26.364073 -7.334294 -0.000009 -0.000006 3.000001 -5.000079 7.998717 -0.000125 -91.105448 169.444166 0.036023 179.999991 -0.000004 -0.659986 107.099538 -0.873995 -1.346595 -0.000007 -0.000002 1.520340 81.311640 6.897350 0.932503 25.745679 -7.355622 0.038323 -93.366459 178.329751 7.553278 0.000013 -0.000005 -0.776341 -82.101572 -3.732315 -1.919645 -0.000005 0.000001 -2.665400 81.852686 -6.288238 -3.150288 27.735698 7.233417 -3.261645 
47.353100 -14.293509 65.452293 34.951649 2.328040 -5.625570 0.214098 -0.066751 0.061217 4.431069 -0.132703 0.125224 6.076122 -0.131167 0.126871 -18.927381 12.800446 3.290508 11.853041 -6.870384 -0.387671 -9.526026 -43.486233 -10.156078 -49.156335 -154.888350 -82.199851 0.000000 0.000001 -0.000002 35.766088 -26.006010 8.417269 -0.000006 0.000009 -3.000014 -5.000242 -7.998685 0.000191 -11.353349 67.877682 13.791798 102.011034 34.649707 -79.873065 0.000000 0.000000 -0.000002 28.934689 26.320076 -7.239119 -0.000010 -0.000005 2.999999 -5.000079 7.998713 -0.000125 -90.829495 169.456297 0.018642 179.999991 -0.000004 -0.662992 107.176938 -0.863920 -1.341516 -0.000007 -0.000002 1.522080 81.353564 6.898142 0.923821 25.752853 -7.355626 0.039432 -93.091093 178.327223 7.521341 0.000013 -0.000005 -0.779249 -82.011427 -3.735117 -1.908998 -0.000004 0.000001 -2.665221 81.877337 -6.287674 -3.153290 27.741821 7.232849 -3.270710 
47.347702 -14.364609 65.517899 34.802392 2.336176 -5.592385 0.220325 -0.064784 0.061579 4.443544 -0.128752 0.125723 6.088595 -0.127213 0.127317 -18.959000 12.711163 3.259081 11.877081 -6.817044 -0.397300 -9.516409 -43.576685 -10.150319 -49.167574 -154.907119 -82.013776 0.000001 0.000001 -0.000003 35.478359 -26.037813 8.363238 -0.000007 0.000009 -3.000010 -5.000237 -7.998684 0.000194 -11.349092 67.902626 13.788031 102.140759 34.626419 -80.240427 -0.000000 -0.000000 -0.000006 28.616088 26.272128 -7.143607 -0.000011 -0.000008 2.999999 -5.000080 7.998716 -0.000125 -90.551574 169.469260 0.001329 179.999991 -0.000004 -0.665997 107.254932 -0.853748 -1.336447 -0.000006 -0.000002 1.523800 81.394832 6.898985 0.915082 25.760229 -7.355626 0.040552 -92.813303 178.325666 7.490910 0.000010 -0.000005 -0.782177 -81.919998 -3.738380 -1.898672 -0.000003 0.000000 -2.665070 81.902192 -6.287158 -3.156381 27.747647 7.232304 -3.279240 
47.331505 -14.434910 65.589493 34.652145 2.344391 -5.558473 0.226689 -0.062834 0.061922 4.456254 -0.124838 0.126168 6.101303 -0.123297 0.127706 -18.990047 12.620815 3.226683 11.900904 -6.762739 -0.407546 -9.506879 -43.666629 -10.144685 -49.178544 -154.926599 -81.826889 0.000001 0.000001 -0.000001 35.188537 -26.067419 8.307837 -0.000005 0.000007 -3.000012 -5.000242 -7.998684 0.000187 -11.343530 67.925637 13.782760 102.271824 34.604173 -80.608486 -0.000000 -0.000000 -0.000001 28.300354 26.220727 -7.048114 -0.000010 -0.000006 3.000000 -5.000079 7.998715 -0.000126 -90.272418 169.482893 -0.015927 180.000005 -0.000004 -0.667991 107.333499 -0.843782 -1.332381 -0.000006 -0.000002 1.525500 81.435458 6.899878 0.906389 25.767797 -7.355624 0.041672 -92.534057 178.324833 7.459848 0.000016 -0.000004 -0.785109 -81.827428 -3.741947 -1.888281 -0.000002 0.000001 -2.664930 81.927197 -6.286637 -3.159362 27.753068 7.231798 -3.287343 
47.325298 -14.504215 65.641594 34.501686 2.352658 -5.524005 0.232958 -0.060938 0.062251 4.468796 -0.121027 0.126578 6.113858 -0.119485 0.128062 -19.019990 12.530387 3.193535 11.923625 -6.708410 -0.418410 -9.496751 -43.755732 -10.138243 -49.189315 -154.945983 -81.639407 0.000001 0.000001 -0.000003 34.896229 -26.094941 8.251095 -0.000003 0.000007 -3.000013 -5.000238 -7.998683 0.000188 -11.335926 67.947979 13.775172 102.403052 34.583672 -80.976250 0.000000 0.000000 -0.000000 27.987713 26.166222 -6.952852 -0.000009 -0.000007 3.000001 -5.000076 7.998715 -0.000123 -89.992763 169.497005 -0.033068 179.999991 -0.000005 -0.670997 107.412859 -0.833726 -1.328310 -0.000005 -0.000002 1.527180 81.475756 6.900746 0.897611 25.775476 -7.355622 0.042779 -92.254224 178.324587 7.429069 0.000013 -0.000005 -0.788028 -81.733787 -3.745723 -1.878032 -0.000004 0.000001 -2.664770 81.952032 -6.286202 -3.162361 27.758288 7.231313 -3.295163 
47.319698 -14.572315 65.708893 34.351736 2.360958 -5.489089 0.238948 -0.059129 0.062575 4.480771 -0.117391 0.126978 6.125843 -0.115847 0.128409 -19.048066 12.440793 3.159769 11.944555 -6.654997 -0.429872 -9.485316 -43.843541 -10.130043 -49.199601 -154.965149 -81.450832 0.000001 0.000001 -0.000002 34.600758 -26.120418 8.192839 -0.000007 0.000009 -3.000008 -5.000241 -7.998683 0.000188 -11.325398 67.970621 13.764345 102.533120 34.565340 -81.342567 -0.000000 -0.000000 -0.000001 27.678242 26.108825 -6.857857 -0.000008 -0.000005 2.999999 -5.000081 7.998714 -0.000124 -89.713339 169.511362 -0.050217 179.999991 -0.000004 -0.673988 107.492902 -0.824185 -1.324182 -0.000007 -0.000002 1.528830 81.515658 6.901674 0.888858 25.783151 -7.355623 0.043877 -91.974569 178.324846 7.399176 0.000012 -0.000005 -0.790917 -81.639400 -3.749469 -1.867655 -0.000002 0.000001 -2.664560 81.976648 -6.285767 -3.165275 27.763512 7.230819 -3.302834 
47.316299 -14.645414 65.772995 34.203088 2.369280 -5.453894 0.244452 -0.057443 0.062902 4.491776 -0.113997 0.127386 6.136847 -0.112453 0.128770 -19.073320 12.352952 3.125467 11.962826 -6.603435 -0.441907 -9.471910 -43.929827 -10.119180 -49.209751 -154.983426 -81.261554 0.000001 0.000001 -0.000001 34.301770 -26.143756 8.133022 -0.000004 0.000006 -3.000008 -5.000241 -7.998683 0.000193 -11.311156 67.994841 13.749435 102.660093 34.549942 -81.705441 -0.000000 0.000000 0.000001 27.372219 26.049156 -6.763452 -0.000007 -0.000004 3.000002 -5.000083 7.998714 -0.000124 -89.434893 169.525855 -0.067396 179.999991 -0.000004 -0.675996 107.573710 -0.814866 -1.320043 -0.000007 -0.000002 1.530430 81.555314 6.902667 0.879830 25.790630 -7.355625 0.044924 -91.696068 178.325393 7.369287 0.000015 -0.000005 -0.793759 -81.544358 -3.753119 -1.857559 -0.000003 0.000001 -2.664270 82.000902 -6.285331 -3.168203 27.768527 7.230329 -3.310445 
47.307899 -14.713917 65.841286 34.056539 2.377614 -5.418543 0.249264 -0.055912 0.063238 4.501387 -0.110919 0.127828 6.146466 -0.109371 0.129167 -19.095107 12.267676 3.090779 11.977742 -6.554661 -0.454499 -9.455773 -44.014135 -10.104663 -49.218804 -155.001226 -81.070220 0.000001 0.000001 0.000002 33.998636 -26.165068 8.071509 -0.000003 0.000011 -3.000010 -5.000239 -7.998683 0.000189 -11.292350 68.021711 13.729529 102.783507 34.538091 -82.065003 -0.000000 0.000000 -0.000002 27.069816 25.987400 -6.669739 -0.000007 -0.000003 3.000002 -5.000081 7.998713 -0.000126 -89.158134 169.540431 -0.084761 180.000005 -0.000005 -0.678988 107.655297 -0.806065 -1.315801 -0.000007 -0.000002 1.532000 81.594840 6.903729 0.870610 25.797903 -7.355619 0.045906 -91.419507 178.326131 7.340131 0.000010 -0.000005 -0.796539 -81.448893 -3.756444 -1.847163 -0.000001 0.000001 -2.663880 82.024650 -6.284864 -3.170959 27.773742 7.229811 -3.318162 
